Coordinates
version=1
nRows=24
nColumns=24
inDegrees=yes

Units are S.I. units (second, meters, Newtons, ...)
Angles are in degrees.

endheader
time	pelvis_tilt	pelvis_list	pelvis_rotation	pelvis_tx	pelvis_ty	pelvis_tz	hip_flexion_r	hip_adduction_r	hip_rotation_r	knee_angle_r	ankle_angle_r	subtalar_angle_r	mtp_angle_r	hip_flexion_l	hip_adduction_l	hip_rotation_l	knee_angle_l	ankle_angle_l	subtalar_angle_l	mtp_angle_l	lumbar_extension	lumbar_bending	lumbar_rotation
      2.53000000	     -7.97965316	     -3.44267066	     -0.54590798	      0.16719634	      0.97862505	     -0.02052574	     22.95536729	     -1.56221335	    -15.07236693	      3.98363794	     -1.23761946	      0.00000000	      0.00000000	     -0.97808139	     -5.26584241	     -9.24611607	     -7.84721852	      9.52376133	      0.00000000	      0.00000000	     -2.26328866	      3.46158051	      5.42439316
      2.54000000	     -7.86996550	     -3.47617795	     -0.19438887	      0.16756235	      0.97739722	     -0.01874527	     23.10586868	     -1.61005194	    -14.82650463	      3.05205282	     -1.41444907	      0.00000000	      0.00000000	     -1.41720957	     -5.45903031	     -9.04715220	     -8.10286325	      9.70088560	      0.00000000	      0.00000000	     -2.33236811	      3.59017877	      5.27086506
      2.55000000	     -7.70607149	     -3.51036775	      0.17775256	      0.16802406	      0.97622910	     -0.01683879	     23.24048844	     -1.67302603	    -14.60320407	      1.86315617	     -1.59800245	      0.00000000	      0.00000000	     -1.87433146	     -5.67462329	     -8.77369780	     -8.44851456	      9.93864319	      0.00000000	      0.00000000	     -2.44946739	      3.71954240	      5.11765670
      2.56000000	     -7.40919410	     -3.46707761	      0.62890317	      0.16833101	      0.97515497	     -0.01499423	     23.36212612	     -1.85715418	    -14.64093634	      0.28858826	     -1.22472315	      0.00000000	      0.00000000	     -2.26541225	     -5.83574082	     -8.15041471	     -9.25210657	     10.67264003	      0.00000000	      0.00000000	     -2.74257257	      3.76970235	      4.94957002
      2.57000000	     -7.27065554	     -3.44513934	      1.08609211	      0.16891374	      0.97400162	     -0.01297130	     23.53249939	     -2.01108591	    -14.60580284	     -1.11745661	     -1.45928825	      0.00000000	      0.00000000	     -2.54711835	     -6.03561622	     -7.66920930	     -9.90013855	     11.00190906	      0.00000000	      0.00000000	     -2.78598850	      3.83513074	      4.69770250
      2.58000000	     -7.08690856	     -3.41882896	      1.47753536	      0.16967105	      0.97304951	     -0.01080644	     23.59227761	     -2.13870200	    -14.53913286	     -2.43777700	     -1.91904493	      0.00000000	      0.00000000	     -2.90158315	     -6.23536312	     -7.33907310	    -10.50379715	     11.18578811	      0.00000000	      0.00000000	     -2.86331875	      3.90713635	      4.56192416
      2.59000000	     -6.92614650	     -3.42570171	      1.84489852	      0.17066003	      0.97224431	     -0.00846218	     23.59517080	     -2.21413361	    -14.35628643	     -3.65603314	     -2.46243688	      0.00000000	      0.00000000	     -3.27181348	     -6.48591658	     -7.11289292	    -11.01805448	     11.16073824	      0.00000000	      0.00000000	     -2.85962620	      4.01490958	      4.38505903
      2.60000000	     -6.73099049	     -3.40369649	      2.17183002	      0.17151360	      0.97169165	     -0.00600793	     23.56880517	     -2.30214894	    -14.29302781	     -4.88277049	     -3.02850764	      0.00000000	      0.00000000	     -3.56953758	     -6.72581553	     -6.80008017	    -11.75108388	     11.12092212	      0.00000000	      0.00000000	     -2.93382198	      4.08132357	      4.31199909
      2.61000000	     -6.62043674	     -3.33277447	      2.72279757	      0.17223299	      0.97121324	     -0.00396216	     23.52814238	     -2.53414860	    -14.70178214	     -5.93940687	     -3.49747926	      0.00000000	      0.00000000	     -3.44232507	     -6.92657611	     -6.07523271	    -13.10997666	     11.47834867	      0.00000000	      0.00000000	     -2.89312017	      4.11903051	      3.98640550
      2.62000000	     -6.49476415	     -3.31458895	      2.95068083	      0.17338204	      0.97111994	     -0.00131782	     23.39352495	     -2.56486786	    -14.59801784	     -6.87845390	     -3.95673668	      0.00000000	      0.00000000	     -3.64494441	     -7.17950816	     -5.88815937	    -13.86975972	     11.15161286	      0.00000000	      0.00000000	     -2.83177019	      4.20013086	      3.96551463
      2.63000000	     -6.31464258	     -3.29051517	      3.17404524	      0.17425489	      0.97135680	      0.00132221	     23.21445563	     -2.60165894	    -14.59313816	     -7.82912953	     -4.41703791	      0.00000000	      0.00000000	     -3.69038433	     -7.43589436	     -5.61140830	    -15.03393675	     10.70083600	      0.00000000	      0.00000000	     -2.87632214	      4.27712983	      3.97822125
      2.64000000	     -6.40443327	     -3.33939070	      3.69691103	      0.17497854	      0.97145131	      0.00362736	     23.15950674	     -2.67967748	    -15.07804253	     -8.53690073	     -4.71698694	      0.00000000	      0.00000000	     -3.08798342	     -7.79373311	     -4.95644288	    -16.76684727	     10.57954139	      0.00000000	      0.00000000	     -2.57638047	      4.41657597	      3.64010062
      2.65000000	     -6.27930442	     -3.30580021	      3.86595328	      0.17589315	      0.97216444	      0.00643461	     22.87016837	     -2.66856534	    -15.04091531	     -9.22885456	     -4.90628562	      0.00000000	      0.00000000	     -2.94184944	     -8.05537932	     -4.74466129	    -18.10860021	      9.82867755	      0.00000000	      0.00000000	     -2.55281262	      4.46306048	      3.68246368
      2.66000000	     -6.14530392	     -3.26777588	      3.94596335	      0.17674722	      0.97312089	      0.00930340	     22.51301055	     -2.60968055	    -15.02532810	     -9.80841455	     -5.00441544	      0.00000000	      0.00000000	     -2.74985338	     -8.29381925	     -4.44046517	    -19.55319411	      8.96424211	      0.00000000	      0.00000000	     -2.55433005	      4.50870914	      3.84611704
      2.67000000	     -6.07714670	     -3.27624711	      4.25730437	      0.17751966	      0.97413873	      0.01199327	     22.13709335	     -2.57436844	    -15.12039153	    -10.31216542	     -4.92265775	      0.00000000	      0.00000000	     -2.22434084	     -8.62750280	     -4.16725864	    -21.34933939	      7.93340503	      0.00000000	      0.00000000	     -2.46045494	      4.58532252	      3.67067131
      2.68000000	     -6.36665807	     -3.37275732	      4.68946807	      0.17795776	      0.97475055	      0.01456055	     22.11762609	     -2.50818007	    -15.62205734	    -10.76929452	     -4.72117922	      0.00000000	      0.00000000	     -1.07134359	     -9.00695824	     -3.41382798	    -23.48187030	      6.98270931	      0.00000000	      0.00000000	     -1.95443303	      4.71900635	      3.42479147
      2.69000000	     -6.23955192	     -3.29616843	      4.82905464	      0.17855586	      0.97610262	      0.01749027	     21.59543357	     -2.43290655	    -15.53839083	    -11.08471723	     -4.52717614	      0.00000000	      0.00000000	     -0.53194914	     -9.23399548	     -3.21698658	    -25.34596162	      5.57472101	      0.00000000	      0.00000000	     -1.98038986	      4.67861505	      3.47578781
      2.70000000	     -6.36109386	     -3.31888798	      5.12069259	      0.17898860	      0.97711720	      0.02019729	     21.28859746	     -2.31989334	    -15.87432068	    -11.31698062	     -4.15484218	      0.00000000	      0.00000000	      0.45635454	     -9.52203143	     -2.68574729	    -27.41631820	      4.08891833	      0.00000000	      0.00000000	     -1.69693979	      4.72583484	      3.39222050
      2.71000000	     -6.38860278	     -3.25557270	      5.34386303	      0.17932893	      0.97826783	      0.02296361	     20.86119007	     -2.23813280	    -16.01170940	    -11.48677507	     -3.83134778	      0.00000000	      0.00000000	      1.38598528	     -9.72460918	     -2.32991614	    -29.54118085	      2.56215588	      0.00000000	      0.00000000	     -1.55697039	      4.67483800	      3.37561760
      2.72000000	     -6.34537956	     -3.17057870	      5.52329921	      0.17951529	      0.97947903	      0.02573980	     20.33340785	     -2.14656834	    -16.09104946	    -11.58423150	     -3.47776398	      0.00000000	      0.00000000	      2.28232302	     -9.89698029	     -2.03914650	    -31.68649396	      0.98851379	      0.00000000	      0.00000000	     -1.53104661	      4.60085752	      3.41459780
      2.73000000	     -6.42125437	     -3.09234005	      5.78493611	      0.17955633	      0.98043326	      0.02833663	     19.91661842	     -2.08286697	    -16.32099641	    -11.64186062	     -3.09107560	      0.00000000	      0.00000000	      3.42826649	    -10.05185111	     -1.70923404	    -33.96597619	     -0.46229225	      0.00000000	      0.00000000	     -1.36499309	      4.52069523	      3.37505463
      2.74000000	     -6.31028653	     -2.97360489	      5.92241570	      0.17953555	      0.98157606	      0.03105914	     19.30270708	     -1.98839219	    -16.31261619	    -11.67038696	     -2.69481564	      0.00000000	      0.00000000	      4.31291105	    -10.17631229	     -1.54628262	    -36.12344828	     -1.87549096	      0.00000000	      0.00000000	     -1.45393141	      4.40941383	      3.49705667
      2.75000000	     -6.35626205	     -2.89994531	      6.14810873	      0.17935911	      0.98237125	      0.03354437	     18.84544632	     -1.89754546	    -16.53671407	    -11.66428193	     -2.23566864	      0.00000000	      0.00000000	      5.47322409	    -10.31979425	     -1.36104230	    -38.38195186	     -3.04434534	      0.00000000	      0.00000000	     -1.35344173	      4.33535209	      3.51395961
      2.76000000	     -6.24764750	     -2.76098038	      6.25758650	      0.17907325	      0.98331081	      0.03611674	     18.24700528	     -1.81734858	    -16.51274866	    -11.66945184	     -1.83581728	      0.00000000	      0.00000000	      6.40161762	    -10.39962711	     -1.30591446	    -40.51582693	     -3.95364858	      0.00000000	      0.00000000	     -1.47637975	      4.20035423	      3.67633041
